<?xml version="1.0" encoding="UTF-8" standalone="no"?>
<svg xmlns="http://www.w3.org/2000/svg" viewBox="0.00in 0.00in 6.67in 9.25in" width="6.67in" height="9.25in">
<defs>
    <style type="text/css">
        
        text {
            font-family: Optima, Rachana, Sawasdee, sans-serif;
        }
    </style>
</defs>
<g transform="matrix(1.000000 0.000000 0.000000 1.000000 247.200000 12.000000)">
  <rect x="-2.575in" y="-0.125in" width="6.675in" height="9.250in" fill="#fff"/>
  <rect x="0in" y="0in" width="2.500in" height="0.600in" fill="#C7E3EC" stroke="#336DA5" stroke-width="0.028in"/>
  <rect x="0in" y="0.600in" width="2.500in" height="1.200in" fill="#DDFFEE"/>
  <rect x="0in" y="1.800in" width="2.500in" height="0.600in" fill="#A7F3DC"/>
  <rect x="0in" y="2.400in" width="2.500in" height="1.200in" fill="#DDFFEE"/>
  <rect x="0in" y="3.600in" width="2.500in" height="0.600in" fill="#A7F3DC"/>
  <rect x="0in" y="4.200in" width="2.500in" height="1.200in" fill="#DDFFEE"/>
  <rect x="0in" y="5.400in" width="2.500in" height="0.600in" fill="#C7E3EC"/>
  <rect x="0in" y="6.000in" width="2.500in" height="0.600in" fill="#C7E3EC" stroke="#336DA5" stroke-width="0.028in"/>
  <rect x="0in" y="6.600in" width="2.500in" height="0.600in" fill="#C7E3EC" stroke="#336DA5" stroke-width="0.028in"/>
  <rect x="0in" y="7.200in" width="2.500in" height="0.600in" fill="#C7E3EC" stroke="#336DA5" stroke-width="0.028in"/>
  <rect x="0in" y="7.800in" width="2.500in" height="0.600in" fill="#C7E3EC" stroke="#336DA5" stroke-width="0.028in"/>
  <rect x="0in" y="8.400in" width="2.500in" height="0.600in" fill="#C7E3EC" stroke="#336DA5" stroke-width="0.028in"/>
  <g>
    <text x="1.250in" y="0.300in" style="text-anchor: middle; dominant-baseline: middle;">[Reserved]</text>
    <text x="2.600in" y="0.550in">0xFFFF F000</text>
    <text x="2.600in" y="0.050in" style="dominant-baseline: hanging;">0xFFFF FFFF</text>
    <path fill="none" stroke="#336DA5" stroke-width="0.028in" stroke-linecap="square" d="M 0 57.60 L 0 172.80 M 240 172.80 L 240 57.60 L 0 57.60"/>
    <path fill="none" stroke="#336DA5" stroke-width="0.028in" stroke-linecap="square" stroke-dasharray="0.056in,0.056in" d="M 0 172.80 L 240 172.80"/>
    <text x="1.250in" y="1.200in" style="text-anchor: middle; dominant-baseline: middle;">[Free]</text>
    <text x="2.600in" y="0.650in" style="dominant-baseline: hanging;">0xFFFF EFFF</text>
    <path fill="none" stroke="#336DA5" stroke-width="0.028in" stroke-linecap="square" d="M 0 172.80 L 0 230.40 L 240 230.40 L 240 172.80"/>
    <text x="1.250in" y="2.183in" style="text-anchor: middle;">.text Section</text>
    <text x="1.250in" y="2.350in" style="text-anchor: middle;">(default location)</text>
    <text x="2.600in" y="2.350in">0x2000 0000</text>
    <path fill="none" stroke="#336DA5" stroke-width="0.028in" stroke-linecap="square" d="M 0 230.40 L 0 345.60 M 240 345.60 L 240 230.40 L 0 230.40"/>
    <path fill="none" stroke="#336DA5" stroke-width="0.028in" stroke-linecap="square" stroke-dasharray="0.056in,0.056in" d="M 0 345.60 L 240 345.60"/>
    <text x="1.250in" y="3in" style="text-anchor: middle; dominant-baseline: middle;">[Free]</text>
    <text x="2.600in" y="2.450in" style="dominant-baseline: hanging;">0x1FFF FFFF</text>
    <path fill="none" stroke="#336DA5" stroke-width="0.028in" stroke-linecap="square" d="M 0 345.60 L 0 403.20 L 240 403.20 L 240 345.60"/>
    <text x="1.250in" y="3.983in" style="text-anchor: middle;">.data Section</text>
    <text x="1.250in" y="4.150in" style="text-anchor: middle;">(default location)</text>
    <text x="2.600in" y="4.150in">0x1000 0000</text>
    <path fill="none" stroke="#336DA5" stroke-width="0.028in" stroke-linecap="square" d="M 0 403.20 L 0 518.40 M 240 518.40 L 240 403.20 L 0 403.20"/>
    <path fill="none" stroke="#336DA5" stroke-width="0.028in" stroke-linecap="square" stroke-dasharray="0.056in,0.056in" d="M 0 518.40 L 240 518.40"/>
    <text x="1.250in" y="4.800in" style="text-anchor: middle; dominant-baseline: middle;">[Free]</text>
    <text x="2.600in" y="4.250in" style="dominant-baseline: hanging;">0x0FFF FFFF</text>
    <path fill="none" stroke="#336DA5" stroke-width="0.028in" stroke-linecap="square" d="M 0 518.40 L 0 576.00 L 240 576.00 L 240 518.40"/>
    <text x="1.250in" y="5.950in" style="text-anchor: middle;">Unloaded Initial Executable</text>
    <text x="2.600in" y="5.950in">0x0003 0000</text>
    <text x="0.050in" y="6.050in" style="dominant-baseline: hanging;">Protected</text>
    <text x="-2.450in" y="6.050in" style="dominant-baseline: hanging;">END OF PROTECTED REGION</text>
    <text x="1.250in" y="6.550in" style="text-anchor: middle;">Stack</text>
    <text x="2.600in" y="6.550in">0x0002 0000</text>
    <text x="2.600in" y="6.050in" style="dominant-baseline: hanging;">0x0002 FFFF</text>
    <text x="1.250in" y="6.900in" style="text-anchor: middle; dominant-baseline: middle;">[Reserved]</text>
    <text x="0.050in" y="6.650in" style="dominant-baseline: hanging;">Protected</text>
    <text x="2.600in" y="7.150in">0x0001 0100</text>
    <text x="2.600in" y="6.650in" style="dominant-baseline: hanging;">0x0001 FFFF</text>
    <text x="0.050in" y="7.250in" style="dominant-baseline: hanging;">Protected</text>
    <text x="1.250in" y="7.583in" style="text-anchor: middle;">Service Handler</text>
    <text x="1.250in" y="7.750in" style="text-anchor: middle;">Interrupt Table</text>
    <text x="2.600in" y="7.750in">0x0001 0000</text>
    <text x="2.600in" y="7.250in" style="dominant-baseline: hanging;">0x0001 00FF</text>
    <text x="0.050in" y="7.850in" style="dominant-baseline: hanging;">ROM, Protected</text>
    <text x="-2.450in" y="7.850in" style="dominant-baseline: hanging;">END OF ROM</text>
    <text x="1.250in" y="8.350in" style="text-anchor: middle;">Program Loader</text>
    <text x="2.600in" y="8.350in">0x0000 0100</text>
    <text x="2.600in" y="7.850in" style="dominant-baseline: hanging;">0x0000 FFFF</text>
    <text x="0.050in" y="8.450in" style="dominant-baseline: hanging;">ROM, Protected</text>
    <text x="1.250in" y="8.950in" style="text-anchor: middle;">Reset Code</text>
    <text x="2.600in" y="8.950in">0x0000 0000</text>
    <text x="2.600in" y="8.450in" style="dominant-baseline: hanging;">0x0000 00FF</text>
  </g>
</g>

</svg>
